<svg width="166" height="166" viewBox="0 0 166 166" fill="none" xmlns="http://www.w3.org/2000/svg">
<g clip-path="url(#clip0_61_1263)">
<path d="M166 83C166 99.4159 161.132 115.463 152.012 129.112C142.892 142.762 129.929 153.4 114.763 159.682C99.5965 165.964 82.908 167.608 66.8075 164.405C50.7071 161.203 35.9179 153.298 24.3102 141.69C12.7024 130.082 4.79743 115.293 1.59486 99.1925C-1.60771 83.0921 0.0359623 66.4035 6.31804 51.2373C12.6001 36.071 23.2384 23.1082 36.8877 13.988C50.537 4.86787 66.5842 0 83 0C105.013 0 126.124 8.74462 141.69 24.3101C157.255 39.8757 166 60.987 166 83V83Z" fill="#F7931A"/>
<path fill-rule="evenodd" clip-rule="evenodd" d="M58.9903 37.9006L78.0652 43.0089L82.3284 27.1182L91.8658 29.7063L87.7686 44.9405L95.548 47.0306L99.6527 31.6303L109.356 34.226L105.176 49.7093C105.176 49.7093 121.021 53.2179 124.749 66.1055C128.476 78.9932 116.555 85.7614 112.872 86.018C112.872 86.018 126.756 93.6314 121.987 108.609C117.219 123.587 102.58 126.265 87.1801 122.832L82.9999 138.889L73.2964 136.293L77.5596 120.486L69.8633 118.388L65.6001 134.309L55.9721 131.721L60.2428 115.875L40.6624 110.594L45.5971 99.6375C45.5971 99.6375 51.1204 101.147 53.2104 101.645C55.3005 102.143 56.6436 99.9695 57.2322 97.7964C57.8207 95.6233 66.6866 59.6089 67.5242 56.6435C68.3617 53.6782 68.0222 51.3617 64.506 50.4487C60.9898 49.5357 56.206 48.1096 56.206 48.1096L58.9903 37.9006ZM78.2312 85.5954L72.9494 106.594C72.9494 106.594 99.1396 116.049 102.49 102.746C105.84 89.4436 78.2312 85.5954 78.2312 85.5954ZM80.6608 75.6354L85.8445 56.3945C85.8445 56.3945 108.27 60.4087 105.508 71.1157C102.746 81.8227 89.5267 77.718 80.6608 75.6354Z" fill="white"/>
</g>
<defs>
<clipPath id="clip0_61_1263">
<rect width="166" height="166" fill="white"/>
</clipPath>
</defs>
</svg>
