<svg width="124" height="124" viewBox="0 0 124 124" fill="none" xmlns="http://www.w3.org/2000/svg">
<path fill-rule="evenodd" clip-rule="evenodd" d="M61.7574 0C74.0199 0 86.0069 3.63624 96.2028 10.4489C106.399 17.2615 114.345 26.9446 119.038 38.2736C123.731 49.6026 124.958 62.0688 122.566 74.0956C120.174 86.1224 114.269 97.1698 105.598 105.841C96.9272 114.511 85.8799 120.416 73.853 122.809C61.8262 125.201 49.3601 123.973 38.0311 119.281C26.7021 114.588 17.019 106.641 10.2063 96.4454C3.39368 86.2495 -0.242554 74.2624 -0.242554 62C-0.242554 45.5566 6.28957 29.7866 17.9168 18.1594C29.5441 6.53212 45.314 0 61.7574 0V0Z" fill="#7D97F1"/>
</svg>

