<svg width="140" height="139" viewBox="0 0 140 139" fill="none" xmlns="http://www.w3.org/2000/svg">
<circle cx="67" cy="67" r="67" fill="#219653"/>
<path d="M48.4079 95.4326V48.1138C48.4076 47.1081 48.7437 46.1309 49.3635 45.3355C49.9833 44.54 50.8516 43.9716 51.8321 43.7193C52.8126 43.467 53.8498 43.5452 54.7806 43.9417C55.7115 44.3381 56.4834 45.0303 56.975 45.9095L83.3731 93.09C83.8647 93.9692 84.6366 94.6614 85.5675 95.0578C86.4983 95.4542 87.5355 95.5325 88.516 95.2802C89.4965 95.0279 90.3648 94.4594 90.9846 93.664C91.6044 92.8686 91.9405 91.8913 91.9402 90.8857V43.5669M39.7014 60.8555H100.647M39.7014 78.144H100.647" stroke="white" stroke-width="8" stroke-linecap="round" stroke-linejoin="round"/>
</svg>

