<svg width="51" height="37" viewBox="0 0 51 37" fill="none" xmlns="http://www.w3.org/2000/svg">
<path d="M44.8232 13.4542H47.4583C48.8791 13.4542 50.0416 12.2917 50.0416 10.8709V9.73421C50.0416 4.38671 45.6758 0.020874 40.3283 0.020874H10.6716C8.47575 0.020874 6.46075 0.744208 4.83325 1.98421C2.48242 3.74087 0.958252 6.55671 0.958252 9.73421V27.12C0.958252 32.4675 5.32409 36.8334 10.6716 36.8334H40.3283C45.6758 36.8334 50.0416 32.4675 50.0416 27.12V26.6292C50.0416 25.2084 48.8791 24.0459 47.4583 24.0459H45.2107C42.7307 24.0459 40.3541 22.5217 39.7083 20.1192C39.1658 18.1559 39.8116 16.27 41.1033 15.0042C42.0591 14.0225 43.3766 13.4542 44.8232 13.4542ZM30.6666 12.9375H12.5833C11.5241 12.9375 10.6458 12.0592 10.6458 11C10.6458 9.94087 11.5241 9.06254 12.5833 9.06254H30.6666C31.7258 9.06254 32.6041 9.94087 32.6041 11C32.6041 12.0592 31.7258 12.9375 30.6666 12.9375Z" fill="#F2921D"/>
</svg>
