<svg width="39" height="39" viewBox="0 0 39 39" fill="none" xmlns="http://www.w3.org/2000/svg">
<path d="M22.8583 2.95088L26.2683 9.77088C26.7333 10.7009 27.9733 11.6309 29.0067 11.7859L35.1808 12.8192C39.1333 13.4909 40.0633 16.3325 37.2217 19.1742L32.4167 24.005C31.6158 24.8059 31.1508 26.3817 31.4092 27.5184L32.7783 33.4859C33.8633 38.1875 31.3575 40.0217 27.1983 37.5675L21.4117 34.1317C20.3525 33.5117 18.6475 33.5117 17.5883 34.1317L11.7758 37.5417C7.61668 39.9959 5.11085 38.1617 6.19585 33.46L7.56501 27.4925C7.82335 26.3817 7.35835 24.8059 6.55751 23.9792L1.77835 19.2C-1.06332 16.3584 -0.133321 13.4909 3.81918 12.845L9.99335 11.8117C11.0267 11.6309 12.2667 10.7267 12.7317 9.79671L16.1417 2.97671C17.9758 -0.74329 21.0242 -0.743291 22.8583 2.95088Z" fill="#F2921D"/>
</svg>
