<svg width="262" height="221" viewBox="0 0 262 221" fill="none" xmlns="http://www.w3.org/2000/svg">
<rect x="0.5" y="0.5" width="260.986" height="219.691" rx="9.5" fill="white"/>
<path d="M56.5488 29.3708V20.9684H59.2148C60.0273 20.9684 60.6699 21.1462 61.1426 21.5016C61.6191 21.8571 61.8574 22.32 61.8574 22.8903C61.8574 23.3669 61.7227 23.7809 61.4531 24.1325C61.1836 24.4841 60.8105 24.7341 60.334 24.8825V24.9059C60.9121 24.9724 61.373 25.1872 61.7168 25.5505C62.0645 25.9099 62.2383 26.3786 62.2383 26.9567C62.2383 27.6755 61.9551 28.2575 61.3887 28.7028C60.8223 29.1481 60.1074 29.3708 59.2441 29.3708H56.5488ZM57.9375 22.0876V24.4782H58.8398C59.3242 24.4782 59.7031 24.3649 59.9766 24.1384C60.2539 23.9079 60.3926 23.5837 60.3926 23.1657C60.3926 22.447 59.9121 22.0876 58.9512 22.0876H57.9375ZM57.9375 25.5974V28.2575H59.127C59.6465 28.2575 60.0469 28.1384 60.3281 27.9001C60.6133 27.6579 60.7559 27.3259 60.7559 26.904C60.7559 26.0329 60.1523 25.5974 58.9453 25.5974H57.9375ZM68.8828 29.3708H67.5234V28.4216H67.5C67.1055 29.1481 66.4922 29.5114 65.6602 29.5114C64.2422 29.5114 63.5332 28.6599 63.5332 26.9567V23.3708H64.8926V26.8161C64.8926 27.8942 65.3086 28.4333 66.1406 28.4333C66.543 28.4333 66.873 28.2849 67.1309 27.988C67.3926 27.6911 67.5234 27.3024 67.5234 26.822V23.3708H68.8828V29.3708ZM75.8555 23.3708L73.1484 30.3317C72.5859 31.5739 71.7969 32.195 70.7812 32.195C70.4961 32.195 70.2578 32.1696 70.0664 32.1188V30.988C70.2812 31.0583 70.4766 31.0934 70.6523 31.0934C71.1602 31.0934 71.5391 30.8434 71.7891 30.3434L72.1934 29.3591L69.8086 23.3708H71.3145L72.7441 27.7302C72.7598 27.7849 72.7949 27.9294 72.8496 28.1638H72.8789C72.8984 28.0739 72.9336 27.9333 72.9844 27.7419L74.4844 23.3708H75.8555Z" fill="#A9A9A9"/>
<line x1="131.684" y1="37.9101" x2="131.684" y2="10.8315" stroke="#E3E3E3" stroke-width="0.676966"/>
<path d="M188.185 29.0368V27.6013C188.313 27.7184 188.466 27.8239 188.642 27.9177C188.821 28.0114 189.011 28.0915 189.21 28.1579C189.409 28.2204 189.608 28.2692 189.808 28.3044C190.007 28.3395 190.19 28.3571 190.358 28.3571C190.944 28.3571 191.38 28.2595 191.665 28.0641C191.954 27.8688 192.099 27.5856 192.099 27.2145C192.099 27.0153 192.05 26.8434 191.952 26.6989C191.858 26.5505 191.726 26.4157 191.554 26.2946C191.382 26.1735 191.179 26.0583 190.944 25.9489C190.714 25.8356 190.466 25.7184 190.2 25.5974C189.915 25.445 189.649 25.2907 189.403 25.1345C189.157 24.9782 188.942 24.8063 188.759 24.6188C188.579 24.4274 188.437 24.2126 188.331 23.9743C188.229 23.736 188.179 23.4567 188.179 23.1364C188.179 22.7419 188.267 22.4001 188.442 22.111C188.622 21.8181 188.856 21.5778 189.146 21.3903C189.438 21.1989 189.771 21.0583 190.142 20.9684C190.513 20.8747 190.892 20.8278 191.278 20.8278C192.157 20.8278 192.798 20.9274 193.2 21.1266V22.5036C192.724 22.1599 192.11 21.988 191.36 21.988C191.153 21.988 190.946 22.0075 190.739 22.0466C190.536 22.0856 190.353 22.1501 190.188 22.2399C190.028 22.3298 189.897 22.445 189.796 22.5856C189.694 22.7263 189.644 22.8962 189.644 23.0954C189.644 23.2829 189.683 23.445 189.761 23.5817C189.839 23.7184 189.952 23.8434 190.101 23.9567C190.253 24.07 190.437 24.1813 190.651 24.2907C190.87 24.3962 191.122 24.5114 191.407 24.6364C191.7 24.7888 191.976 24.9489 192.233 25.1169C192.495 25.2849 192.724 25.4704 192.919 25.6735C193.118 25.8766 193.274 26.1032 193.388 26.3532C193.505 26.5993 193.563 26.8806 193.563 27.197C193.563 27.6227 193.478 27.9821 193.306 28.2751C193.134 28.5681 192.901 28.8063 192.608 28.9899C192.319 29.1735 191.985 29.3063 191.606 29.3884C191.228 29.4704 190.827 29.5114 190.405 29.5114C190.265 29.5114 190.091 29.4997 189.884 29.4763C189.681 29.4567 189.472 29.4255 189.257 29.3825C189.042 29.3434 188.839 29.2946 188.647 29.236C188.456 29.1774 188.302 29.111 188.185 29.0368ZM200.038 26.7399H195.948C195.964 27.2946 196.134 27.7224 196.458 28.0231C196.786 28.3239 197.235 28.4743 197.806 28.4743C198.446 28.4743 199.034 28.2829 199.569 27.9001V28.9958C199.022 29.3395 198.3 29.5114 197.401 29.5114C196.519 29.5114 195.825 29.2399 195.321 28.697C194.821 28.1501 194.571 27.3825 194.571 26.3942C194.571 25.4606 194.847 24.7009 195.397 24.1149C195.952 23.5251 196.64 23.2302 197.46 23.2302C198.28 23.2302 198.915 23.4938 199.364 24.0212C199.813 24.5485 200.038 25.2809 200.038 26.2184V26.7399ZM198.726 25.779C198.722 25.2907 198.606 24.9118 198.38 24.6423C198.153 24.3688 197.841 24.2321 197.442 24.2321C197.052 24.2321 196.72 24.3747 196.446 24.6599C196.177 24.945 196.011 25.3181 195.948 25.779H198.726ZM202.698 29.3708H201.333V20.488H202.698V29.3708ZM205.839 29.3708H204.474V20.488H205.839V29.3708Z" fill="#1C1C93"/>
<path d="M96.5481 57.3258H92.095V48.9235H96.3606V49.8141H93.0793V52.609H96.1145V53.4938H93.0793V56.4352H96.5481V57.3258ZM100.82 57.2672C100.593 57.3922 100.294 57.4547 99.9231 57.4547C98.8723 57.4547 98.3469 56.8688 98.3469 55.6969V52.1461H97.3157V51.3258H98.3469V49.861L99.3079 49.5504V51.3258H100.82V52.1461H99.3079V55.527C99.3079 55.9294 99.3762 56.2165 99.5129 56.3883C99.6497 56.5602 99.8762 56.6461 100.193 56.6461C100.435 56.6461 100.644 56.5797 100.82 56.4469V57.2672ZM107.083 57.3258H106.122V53.8688C106.122 52.6188 105.657 51.9938 104.728 51.9938C104.259 51.9938 103.865 52.1754 103.544 52.5387C103.224 52.8981 103.064 53.361 103.064 53.9274V57.3258H102.103V48.443H103.064V52.3219H103.087C103.548 51.5641 104.204 51.1852 105.056 51.1852C106.407 51.1852 107.083 51.9997 107.083 53.6286V57.3258ZM113.722 54.5661H109.486C109.501 55.234 109.681 55.7497 110.025 56.1129C110.368 56.4762 110.841 56.6579 111.443 56.6579C112.118 56.6579 112.74 56.4352 113.306 55.9899V56.8922C112.779 57.2751 112.081 57.4665 111.214 57.4665C110.366 57.4665 109.7 57.195 109.216 56.652C108.732 56.1051 108.49 55.3376 108.49 54.3493C108.49 53.4157 108.753 52.6559 109.281 52.07C109.812 51.4801 110.47 51.1852 111.255 51.1852C112.04 51.1852 112.648 51.4391 113.077 51.9469C113.507 52.4547 113.722 53.1598 113.722 54.0622V54.5661ZM112.738 53.7516C112.734 53.1969 112.599 52.7653 112.333 52.4567C112.072 52.1481 111.706 51.9938 111.238 51.9938C110.784 51.9938 110.4 52.1559 110.083 52.4801C109.767 52.8044 109.572 53.2282 109.497 53.7516H112.738ZM118.31 52.2985C118.142 52.1696 117.9 52.1051 117.583 52.1051C117.173 52.1051 116.829 52.2985 116.552 52.6852C116.279 53.0719 116.142 53.5993 116.142 54.2672V57.3258H115.181V51.3258H116.142V52.5622H116.165C116.302 52.1403 116.511 51.8122 116.792 51.5778C117.073 51.3395 117.388 51.2204 117.736 51.2204C117.986 51.2204 118.177 51.2477 118.31 51.3024V52.2985ZM124.175 54.5661H119.939C119.954 55.234 120.134 55.7497 120.478 56.1129C120.822 56.4762 121.294 56.6579 121.896 56.6579C122.572 56.6579 123.193 56.4352 123.759 55.9899V56.8922C123.232 57.2751 122.534 57.4665 121.667 57.4665C120.82 57.4665 120.154 57.195 119.669 56.652C119.185 56.1051 118.943 55.3376 118.943 54.3493C118.943 53.4157 119.206 52.6559 119.734 52.07C120.265 51.4801 120.923 51.1852 121.708 51.1852C122.493 51.1852 123.101 51.4391 123.531 51.9469C123.96 52.4547 124.175 53.1598 124.175 54.0622V54.5661ZM123.191 53.7516C123.187 53.1969 123.052 52.7653 122.786 52.4567C122.525 52.1481 122.159 51.9938 121.691 51.9938C121.238 51.9938 120.853 52.1559 120.536 52.4801C120.22 52.8044 120.025 53.2282 119.95 53.7516H123.191ZM130.486 57.3258H129.525V56.3766H129.501C129.103 57.1032 128.486 57.4665 127.65 57.4665C126.22 57.4665 125.505 56.6149 125.505 54.9118V51.3258H126.46V54.7594C126.46 56.0251 126.945 56.6579 127.913 56.6579C128.382 56.6579 128.767 56.486 129.068 56.1422C129.372 55.7946 129.525 55.3415 129.525 54.7829V51.3258H130.486V57.3258ZM140.95 57.3258H139.99V53.8805C139.99 53.2165 139.886 52.736 139.679 52.4391C139.476 52.1422 139.132 51.9938 138.648 51.9938C138.238 51.9938 137.888 52.1813 137.599 52.5563C137.314 52.9313 137.171 53.3805 137.171 53.904V57.3258H136.21V53.7633C136.21 52.5836 135.755 51.9938 134.845 51.9938C134.423 51.9938 134.075 52.1715 133.802 52.527C133.529 52.8786 133.392 53.3376 133.392 53.904V57.3258H132.431V51.3258H133.392V52.2751H133.415C133.841 51.5485 134.462 51.1852 135.279 51.1852C135.689 51.1852 136.046 51.3004 136.351 51.5309C136.656 51.7575 136.865 52.0563 136.978 52.4274C137.423 51.5993 138.087 51.1852 138.97 51.1852C140.29 51.1852 140.95 51.9997 140.95 53.6286V57.3258ZM147.173 54.1501V57.3258H146.189V48.9235H148.497C149.396 48.9235 150.091 49.1422 150.583 49.5797C151.079 50.0172 151.327 50.6344 151.327 51.4313C151.327 52.2282 151.052 52.8805 150.501 53.3883C149.954 53.8961 149.214 54.1501 148.281 54.1501H147.173ZM147.173 49.8141V53.2594H148.204C148.884 53.2594 149.402 53.1051 149.757 52.7965C150.116 52.484 150.296 52.0446 150.296 51.4782C150.296 50.3688 149.64 49.8141 148.327 49.8141H147.173ZM155.915 52.2985C155.747 52.1696 155.505 52.1051 155.189 52.1051C154.779 52.1051 154.435 52.2985 154.157 52.6852C153.884 53.0719 153.747 53.5993 153.747 54.2672V57.3258H152.786V51.3258H153.747V52.5622H153.771C153.907 52.1403 154.116 51.8122 154.398 51.5778C154.679 51.3395 154.993 51.2204 155.341 51.2204C155.591 51.2204 155.782 51.2477 155.915 51.3024V52.2985ZM157.45 49.8024C157.279 49.8024 157.132 49.7438 157.011 49.6266C156.89 49.5094 156.829 49.361 156.829 49.1813C156.829 49.0016 156.89 48.8532 157.011 48.736C157.132 48.6149 157.279 48.5544 157.45 48.5544C157.626 48.5544 157.775 48.6149 157.896 48.736C158.021 48.8532 158.083 49.0016 158.083 49.1813C158.083 49.3532 158.021 49.4997 157.896 49.6208C157.775 49.7419 157.626 49.8024 157.45 49.8024ZM157.919 57.3258H156.958V51.3258H157.919V57.3258ZM163.954 57.0504C163.493 57.3278 162.947 57.4665 162.314 57.4665C161.458 57.4665 160.767 57.1891 160.24 56.6344C159.716 56.0758 159.454 55.3532 159.454 54.4665C159.454 53.4782 159.738 52.6852 160.304 52.0876C160.87 51.486 161.626 51.1852 162.572 51.1852C163.099 51.1852 163.564 51.2829 163.966 51.4782V52.4626C163.521 52.1501 163.044 51.9938 162.536 51.9938C161.923 51.9938 161.419 52.2145 161.025 52.6559C160.634 53.0934 160.439 53.6696 160.439 54.3844C160.439 55.0876 160.622 55.6422 160.99 56.0485C161.361 56.4547 161.857 56.6579 162.478 56.6579C163.001 56.6579 163.493 56.484 163.954 56.1364V57.0504ZM170.23 54.5661H165.993C166.009 55.234 166.189 55.7497 166.532 56.1129C166.876 56.4762 167.349 56.6579 167.95 56.6579C168.626 56.6579 169.247 56.4352 169.814 55.9899V56.8922C169.286 57.2751 168.589 57.4665 167.722 57.4665C166.874 57.4665 166.208 57.195 165.724 56.652C165.24 56.1051 164.997 55.3376 164.997 54.3493C164.997 53.4157 165.261 52.6559 165.788 52.07C166.32 51.4801 166.978 51.1852 167.763 51.1852C168.548 51.1852 169.156 51.4391 169.585 51.9469C170.015 52.4547 170.23 53.1598 170.23 54.0622V54.5661ZM169.245 53.7516C169.241 53.1969 169.107 52.7653 168.841 52.4567C168.579 52.1481 168.214 51.9938 167.745 51.9938C167.292 51.9938 166.907 52.1559 166.591 52.4801C166.275 52.8044 166.079 53.2282 166.005 53.7516H169.245Z" fill="#A9A9A9"/>
<path d="M111.255 77.9868V79.2583H110.534V78.0337C109.667 78.0337 108.962 77.8657 108.419 77.5298V76.2232C108.657 76.4302 108.98 76.604 109.386 76.7446C109.796 76.8853 110.179 76.9556 110.534 76.9556V74.3482C109.613 73.9224 109.015 73.5298 108.741 73.1704C108.472 72.8111 108.337 72.3853 108.337 71.8931C108.337 71.3111 108.544 70.8091 108.958 70.3872C109.372 69.9614 109.898 69.7056 110.534 69.6196V68.565H111.255V69.5962C112.075 69.6196 112.642 69.729 112.954 69.9243V71.1782C112.529 70.8657 111.962 70.6978 111.255 70.6743V73.3755C112.115 73.7739 112.702 74.1607 113.019 74.5357C113.335 74.9107 113.493 75.3345 113.493 75.8071C113.493 76.3814 113.296 76.8618 112.902 77.2486C112.507 77.6353 111.958 77.8814 111.255 77.9868ZM110.534 73.0415V70.7036C110.241 70.7622 110.009 70.8872 109.837 71.0786C109.665 71.27 109.579 71.5025 109.579 71.7759C109.579 72.065 109.65 72.3013 109.79 72.4849C109.931 72.6685 110.179 72.854 110.534 73.0415ZM111.255 74.6646V76.9204C111.919 76.7798 112.251 76.4341 112.251 75.8833C112.251 75.4224 111.919 75.0161 111.255 74.6646ZM114.882 77.7232V76.4458C115.429 76.8794 116.046 77.0962 116.734 77.0962C117.292 77.0962 117.738 76.9693 118.07 76.7153C118.406 76.4614 118.573 76.1177 118.573 75.6841C118.573 74.731 117.845 74.2544 116.388 74.2544H115.738V73.1646H116.359C117.652 73.1646 118.298 72.7153 118.298 71.8169C118.298 70.9888 117.794 70.5747 116.786 70.5747C116.224 70.5747 115.695 70.7759 115.198 71.1782V69.9712C115.769 69.6509 116.443 69.4907 117.22 69.4907C117.966 69.4907 118.564 69.6782 119.013 70.0532C119.462 70.4282 119.687 70.9087 119.687 71.4946C119.687 72.6001 119.124 73.3111 117.999 73.6275V73.6509C118.605 73.7095 119.083 73.9224 119.435 74.2896C119.786 74.6528 119.962 75.1079 119.962 75.6548C119.962 76.4087 119.679 77.0181 119.113 77.4829C118.546 77.9439 117.8 78.1743 116.874 78.1743C116.042 78.1743 115.378 78.0239 114.882 77.7232ZM122.277 78.1626C122.042 78.1626 121.843 78.0864 121.679 77.9341C121.515 77.7778 121.433 77.5923 121.433 77.3775C121.433 77.1587 121.515 76.9712 121.679 76.815C121.843 76.6587 122.042 76.5806 122.277 76.5806C122.515 76.5806 122.716 76.6587 122.88 76.815C123.048 76.9712 123.132 77.1587 123.132 77.3775C123.132 77.5923 123.048 77.7778 122.88 77.9341C122.716 78.0864 122.515 78.1626 122.277 78.1626ZM127.327 69.4439V78.0337H125.968V71.1079C125.722 71.2837 125.456 71.4341 125.171 71.5591C124.89 71.6802 124.568 71.7876 124.204 71.8814V70.7212C124.431 70.647 124.65 70.5689 124.861 70.4868C125.072 70.4048 125.279 70.313 125.482 70.2114C125.689 70.1099 125.896 69.9966 126.103 69.8716C126.314 69.7466 126.531 69.604 126.753 69.4439H127.327ZM132.156 69.4439V78.0337H130.796V71.1079C130.55 71.2837 130.284 71.4341 129.999 71.5591C129.718 71.6802 129.396 71.7876 129.032 71.8814V70.7212C129.259 70.647 129.478 70.5689 129.689 70.4868C129.9 70.4048 130.107 70.313 130.31 70.2114C130.517 70.1099 130.724 69.9966 130.931 69.8716C131.142 69.7466 131.359 69.604 131.581 69.4439H132.156ZM136.62 78.1743C135.745 78.1743 135.062 77.8169 134.57 77.1021C134.081 76.3872 133.837 75.354 133.837 74.0025C133.837 72.5181 134.093 71.395 134.605 70.6333C135.116 69.8716 135.855 69.4907 136.82 69.4907C138.667 69.4907 139.591 70.9263 139.591 73.7974C139.591 75.2193 139.329 76.3052 138.806 77.0552C138.286 77.8013 137.558 78.1743 136.62 78.1743ZM136.755 70.5747C135.736 70.5747 135.226 71.6978 135.226 73.9439C135.226 76.0454 135.726 77.0962 136.726 77.0962C137.71 77.0962 138.202 76.0278 138.202 73.8911C138.202 71.6802 137.72 70.5747 136.755 70.5747ZM142.204 76.6333L141.296 79.5571H140.277L140.921 76.6333H142.204ZM143.663 77.7232V76.4458C144.21 76.8794 144.827 77.0962 145.515 77.0962C146.073 77.0962 146.519 76.9693 146.851 76.7153C147.187 76.4614 147.355 76.1177 147.355 75.6841C147.355 74.731 146.626 74.2544 145.169 74.2544H144.519V73.1646H145.14C146.433 73.1646 147.079 72.7153 147.079 71.8169C147.079 70.9888 146.575 70.5747 145.568 70.5747C145.005 70.5747 144.476 70.7759 143.98 71.1782V69.9712C144.55 69.6509 145.224 69.4907 146.001 69.4907C146.747 69.4907 147.345 69.6782 147.794 70.0532C148.243 70.4282 148.468 70.9087 148.468 71.4946C148.468 72.6001 147.906 73.3111 146.781 73.6275V73.6509C147.386 73.7095 147.865 73.9224 148.216 74.2896C148.568 74.6528 148.743 75.1079 148.743 75.6548C148.743 76.4087 148.46 77.0181 147.894 77.4829C147.327 77.9439 146.581 78.1743 145.656 78.1743C144.823 78.1743 144.159 78.0239 143.663 77.7232ZM153.214 69.4439V78.0337H151.855V71.1079C151.609 71.2837 151.343 71.4341 151.058 71.5591C150.777 71.6802 150.454 71.7876 150.091 71.8814V70.7212C150.318 70.647 150.536 70.5689 150.747 70.4868C150.958 70.4048 151.165 70.313 151.368 70.2114C151.575 70.1099 151.782 69.9966 151.99 69.8716C152.2 69.7466 152.417 69.604 152.64 69.4439H153.214Z" fill="#1F1F1F"/>
<path d="M27.0989 110.016C26.4078 110.016 25.8679 109.733 25.4792 109.169C25.0936 108.604 24.9008 107.788 24.9008 106.721C24.9008 105.548 25.1028 104.661 25.507 104.06C25.9111 103.458 26.4942 103.157 27.2563 103.157C28.7155 103.157 29.4452 104.291 29.4452 106.559C29.4452 107.682 29.2385 108.539 28.825 109.132C28.4147 109.721 27.8393 110.016 27.0989 110.016ZM27.2053 104.013C26.4001 104.013 25.9975 104.9 25.9975 106.674C25.9975 108.334 26.3924 109.164 27.1822 109.164C27.9597 109.164 28.3484 108.32 28.3484 106.633C28.3484 104.887 27.9674 104.013 27.2053 104.013ZM30.9492 110.006C30.7641 110.006 30.6067 109.946 30.4771 109.826C30.3476 109.702 30.2828 109.556 30.2828 109.386C30.2828 109.213 30.3476 109.065 30.4771 108.942C30.6067 108.819 30.7641 108.757 30.9492 108.757C31.1374 108.757 31.2962 108.819 31.4258 108.942C31.5585 109.065 31.6248 109.213 31.6248 109.386C31.6248 109.556 31.5585 109.702 31.4258 109.826C31.2962 109.946 31.1374 110.006 30.9492 110.006ZM34.9382 103.12V109.904H33.8646V104.435C33.6702 104.573 33.4605 104.692 33.2352 104.791C33.0131 104.887 32.7586 104.971 32.4717 105.045V104.129C32.6506 104.071 32.8234 104.009 32.99 103.944C33.1566 103.879 33.3201 103.807 33.4805 103.727C33.644 103.646 33.8075 103.557 33.971 103.458C34.1376 103.359 34.3089 103.247 34.4847 103.12H34.9382ZM36.3265 108.053C36.3265 107.862 36.3497 107.677 36.396 107.498C36.4453 107.319 36.5178 107.154 36.6135 107.003C36.7091 106.852 36.8294 106.716 36.9744 106.596C37.1194 106.475 37.2891 106.378 37.4835 106.304C37.1966 106.144 36.9683 105.939 36.7986 105.689C36.6289 105.436 36.544 105.156 36.544 104.851C36.544 104.607 36.5934 104.382 36.6921 104.175C36.7939 103.969 36.9328 103.79 37.1086 103.639C37.2876 103.487 37.4974 103.37 37.738 103.287C37.9786 103.201 38.2409 103.157 38.5247 103.157C38.8116 103.157 39.0754 103.201 39.316 103.287C39.5598 103.373 39.7696 103.492 39.9454 103.643C40.1243 103.794 40.2632 103.973 40.3619 104.18C40.4606 104.387 40.51 104.61 40.51 104.851C40.51 105.156 40.4251 105.436 40.2555 105.689C40.0858 105.939 39.8606 106.144 39.5798 106.304C39.7711 106.378 39.9392 106.475 40.0842 106.596C40.2323 106.713 40.3557 106.847 40.4545 106.998C40.5532 107.149 40.6272 107.315 40.6766 107.493C40.7259 107.672 40.7506 107.859 40.7506 108.053C40.7506 108.343 40.6966 108.609 40.5887 108.849C40.4807 109.09 40.3295 109.297 40.1351 109.469C39.9408 109.639 39.7079 109.772 39.4364 109.867C39.1649 109.963 38.8656 110.011 38.5386 110.011C38.2146 110.011 37.9169 109.963 37.6454 109.867C37.377 109.772 37.1441 109.639 36.9467 109.469C36.7523 109.297 36.5996 109.09 36.4885 108.849C36.3805 108.609 36.3265 108.343 36.3265 108.053ZM37.3724 107.961C37.3724 108.149 37.4002 108.319 37.4557 108.47C37.5112 108.621 37.5899 108.749 37.6917 108.854C37.7935 108.959 37.9154 109.039 38.0573 109.095C38.2023 109.15 38.3627 109.178 38.5386 109.178C38.7083 109.178 38.8641 109.15 39.006 109.095C39.1479 109.036 39.2698 108.954 39.3716 108.849C39.4765 108.741 39.5582 108.613 39.6168 108.465C39.6755 108.314 39.7048 108.146 39.7048 107.961C39.7048 107.791 39.677 107.632 39.6215 107.484C39.5659 107.333 39.4873 107.202 39.3855 107.091C39.2836 106.98 39.1602 106.892 39.0152 106.827C38.8733 106.762 38.7144 106.73 38.5386 106.73C38.372 106.73 38.2162 106.761 38.0712 106.822C37.9293 106.881 37.8059 106.966 37.701 107.077C37.5992 107.185 37.5189 107.315 37.4603 107.466C37.4017 107.617 37.3724 107.782 37.3724 107.961ZM37.5992 104.962C37.5992 105.101 37.6238 105.231 37.6732 105.351C37.7226 105.468 37.7889 105.571 37.8722 105.661C37.9555 105.747 38.0527 105.815 38.1637 105.865C38.2779 105.914 38.3998 105.939 38.5293 105.939C38.6589 105.939 38.7792 105.914 38.8903 105.865C39.0044 105.812 39.1032 105.743 39.1865 105.656C39.2728 105.567 39.3407 105.463 39.3901 105.346C39.4394 105.226 39.4641 105.098 39.4641 104.962C39.4641 104.823 39.4394 104.694 39.3901 104.573C39.3438 104.453 39.279 104.35 39.1957 104.263C39.1124 104.177 39.0137 104.109 38.8995 104.06C38.7854 104.01 38.662 103.986 38.5293 103.986C38.3905 103.986 38.264 104.012 38.1499 104.064C38.0357 104.114 37.937 104.183 37.8537 104.273C37.7735 104.362 37.7102 104.467 37.664 104.587C37.6208 104.705 37.5992 104.829 37.5992 104.962ZM45.7902 109.904H41.6253V109.391C41.6253 109.181 41.6546 108.985 41.7132 108.803C41.7718 108.618 41.8505 108.445 41.9492 108.285C42.0479 108.121 42.1636 107.969 42.2963 107.827C42.4289 107.682 42.5709 107.543 42.722 107.41C42.8732 107.274 43.0275 107.145 43.1848 107.021C43.3421 106.895 43.4964 106.768 43.6476 106.642C43.7895 106.522 43.9191 106.404 44.0363 106.29C44.1535 106.173 44.2538 106.053 44.3371 105.929C44.4204 105.806 44.4852 105.676 44.5315 105.541C44.5777 105.402 44.6009 105.252 44.6009 105.092C44.6009 104.916 44.5731 104.763 44.5176 104.634C44.4651 104.501 44.3895 104.391 44.2908 104.305C44.1952 104.216 44.081 104.149 43.9484 104.106C43.8157 104.06 43.6707 104.037 43.5134 104.037C43.2419 104.037 42.9658 104.1 42.685 104.226C42.4043 104.353 42.1343 104.543 41.8752 104.796V103.764C42.0109 103.662 42.1482 103.574 42.287 103.5C42.4259 103.423 42.5693 103.359 42.7174 103.31C42.8655 103.258 43.0213 103.219 43.1848 103.194C43.3483 103.17 43.5226 103.157 43.7077 103.157C44.007 103.157 44.2785 103.197 44.5222 103.278C44.7659 103.355 44.9742 103.47 45.1469 103.625C45.3197 103.776 45.4524 103.966 45.5449 104.194C45.6406 104.422 45.6884 104.684 45.6884 104.981C45.6884 105.249 45.6544 105.491 45.5866 105.707C45.5218 105.92 45.4277 106.119 45.3043 106.304C45.184 106.489 45.0374 106.665 44.8647 106.832C44.6919 106.998 44.4991 107.17 44.2862 107.345C44.1073 107.49 43.9283 107.632 43.7494 107.771C43.5735 107.907 43.4146 108.041 43.2727 108.174C43.1308 108.303 43.0151 108.434 42.9256 108.567C42.8393 108.697 42.7961 108.828 42.7961 108.96V108.984H45.7902V109.904ZM50.7233 103.268V107.554H51.709V108.447H50.7233V109.904H49.6821V108.447H46.6787V107.544C46.9502 107.239 47.2279 106.909 47.5117 106.554C47.7986 106.196 48.0732 105.832 48.3354 105.462C48.6007 105.089 48.846 104.715 49.0712 104.342C49.2964 103.969 49.4862 103.611 49.6404 103.268H50.7233ZM49.6821 107.554V104.768C49.3458 105.372 49.0126 105.9 48.6825 106.35C48.3555 106.801 48.0485 107.202 47.7616 107.554H49.6821Z" fill="#626262"/>
<g clip-path="url(#clip0_61_1293)">
<path d="M182.784 114.528C187.271 114.528 190.908 110.891 190.908 106.404C190.908 101.918 187.271 98.2809 182.784 98.2809C178.298 98.2809 174.661 101.918 174.661 106.404C174.661 110.891 178.298 114.528 182.784 114.528Z" fill="#F7931A"/>
<path d="M186.434 105.399C186.594 104.335 185.783 103.763 184.675 103.381L185.034 101.939L184.157 101.721L183.807 103.125C183.576 103.067 183.34 103.013 183.103 102.959L183.456 101.546L182.579 101.327L182.219 102.769C182.029 102.725 181.841 102.682 181.659 102.637L181.66 102.632L180.45 102.33L180.216 103.267C180.216 103.267 180.867 103.417 180.854 103.426C181.209 103.515 181.273 103.75 181.262 103.936L180.853 105.579C180.878 105.585 180.909 105.594 180.945 105.608L180.852 105.585L180.278 107.886C180.234 107.994 180.124 108.156 179.875 108.094C179.884 108.107 179.238 107.935 179.238 107.935L178.802 108.94L179.944 109.224C180.157 109.278 180.365 109.334 180.569 109.386L180.206 110.844L181.083 111.062L181.443 109.62C181.682 109.685 181.915 109.745 182.142 109.802L181.784 111.238L182.661 111.456L183.024 110.001C184.521 110.284 185.646 110.17 186.12 108.816C186.502 107.727 186.101 107.098 185.314 106.688C185.887 106.556 186.319 106.179 186.434 105.399V105.399ZM184.429 108.211C184.158 109.301 182.323 108.712 181.728 108.564L182.21 106.632C182.805 106.781 184.712 107.075 184.429 108.211ZM184.7 105.383C184.453 106.375 182.926 105.871 182.431 105.747L182.867 103.996C183.362 104.119 184.958 104.349 184.7 105.383Z" fill="white"/>
</g>
<path d="M197.361 110.904V102.502H200.027C200.839 102.502 201.482 102.68 201.954 103.035C202.431 103.391 202.669 103.854 202.669 104.424C202.669 104.901 202.534 105.315 202.265 105.666C201.995 106.018 201.622 106.268 201.146 106.416V106.44C201.724 106.506 202.185 106.721 202.529 107.084C202.876 107.444 203.05 107.912 203.05 108.49C203.05 109.209 202.767 109.791 202.2 110.237C201.634 110.682 200.919 110.904 200.056 110.904H197.361ZM198.749 103.621V106.012H199.652C200.136 106.012 200.515 105.899 200.788 105.672C201.066 105.442 201.204 105.117 201.204 104.699C201.204 103.981 200.724 103.621 199.763 103.621H198.749ZM198.749 107.131V109.791H199.939C200.458 109.791 200.859 109.672 201.14 109.434C201.425 109.192 201.568 108.86 201.568 108.438C201.568 107.567 200.964 107.131 199.757 107.131H198.749ZM209.572 103.686H207.157V110.904H205.763V103.686H203.355V102.502H209.572V103.686ZM216.169 110.553C215.536 110.881 214.749 111.045 213.808 111.045C212.589 111.045 211.613 110.66 210.878 109.891C210.144 109.121 209.777 108.112 209.777 106.862C209.777 105.518 210.189 104.432 211.013 103.604C211.841 102.776 212.886 102.362 214.148 102.362C214.96 102.362 215.634 102.477 216.169 102.707V104.09C215.603 103.754 214.978 103.586 214.294 103.586C213.384 103.586 212.646 103.877 212.079 104.459C211.517 105.041 211.236 105.819 211.236 106.791C211.236 107.717 211.499 108.455 212.027 109.006C212.554 109.553 213.247 109.826 214.107 109.826C214.9 109.826 215.587 109.639 216.169 109.264V110.553Z" fill="#626262"/>
<path d="M235.407 104.88L232.147 108.14C231.762 108.525 231.132 108.525 230.747 108.14L227.487 104.88" stroke="#292D32" stroke-width="1.5" stroke-miterlimit="10" stroke-linecap="round" stroke-linejoin="round"/>
<rect x="13.8783" y="90.4958" width="234.23" height="31.8174" rx="2.36938" stroke="#CACACA" stroke-width="0.676966"/>
<path d="M26.9305 150.634C26.2394 150.634 25.6995 150.351 25.3108 149.787C24.9251 149.222 24.7323 148.406 24.7323 147.339C24.7323 146.166 24.9344 145.279 25.3385 144.678C25.7427 144.076 26.3258 143.775 27.0878 143.775C28.5471 143.775 29.2767 144.909 29.2767 147.177C29.2767 148.3 29.07 149.157 28.6566 149.75C28.2463 150.339 27.6709 150.634 26.9305 150.634ZM27.0369 144.631C26.2317 144.631 25.8291 145.518 25.8291 147.292C25.8291 148.952 26.224 149.782 27.0138 149.782C27.7912 149.782 28.1799 148.938 28.1799 147.251C28.1799 145.504 27.7989 144.631 27.0369 144.631ZM30.7807 150.624C30.5956 150.624 30.4383 150.564 30.3087 150.444C30.1791 150.32 30.1143 150.174 30.1143 150.004C30.1143 149.831 30.1791 149.683 30.3087 149.56C30.4383 149.436 30.5956 149.375 30.7807 149.375C30.9689 149.375 31.1278 149.436 31.2574 149.56C31.39 149.683 31.4563 149.831 31.4563 150.004C31.4563 150.174 31.39 150.32 31.2574 150.444C31.1278 150.564 30.9689 150.624 30.7807 150.624ZM34.7698 143.738V150.522H33.6962V145.053C33.5018 145.191 33.292 145.31 33.0668 145.409C32.8447 145.504 32.5901 145.589 32.3032 145.663V144.747C32.4822 144.688 32.6549 144.627 32.8215 144.562C32.9881 144.497 33.1516 144.425 33.3121 144.344C33.4756 144.264 33.6391 144.175 33.8026 144.076C33.9692 143.977 34.1404 143.865 34.3163 143.738H34.7698ZM36.1581 148.671C36.1581 148.48 36.1812 148.295 36.2275 148.116C36.2769 147.937 36.3494 147.772 36.445 147.621C36.5406 147.47 36.661 147.334 36.806 147.214C36.951 147.093 37.1207 146.996 37.315 146.922C37.0281 146.762 36.7998 146.557 36.6301 146.307C36.4604 146.054 36.3756 145.774 36.3756 145.469C36.3756 145.225 36.425 145 36.5237 144.793C36.6255 144.587 36.7643 144.408 36.9402 144.257C37.1191 144.105 37.3289 143.988 37.5695 143.905C37.8102 143.818 38.0724 143.775 38.3562 143.775C38.6432 143.775 38.9069 143.818 39.1476 143.905C39.3913 143.991 39.6011 144.11 39.7769 144.261C39.9559 144.412 40.0947 144.591 40.1934 144.798C40.2922 145.005 40.3415 145.228 40.3415 145.469C40.3415 145.774 40.2567 146.054 40.087 146.307C39.9173 146.557 39.6921 146.762 39.4114 146.922C39.6026 146.996 39.7708 147.093 39.9158 147.214C40.0639 147.331 40.1873 147.465 40.286 147.616C40.3847 147.767 40.4588 147.932 40.5081 148.111C40.5575 148.29 40.5822 148.477 40.5822 148.671C40.5822 148.961 40.5282 149.227 40.4202 149.467C40.3122 149.708 40.161 149.915 39.9667 150.087C39.7723 150.257 39.5394 150.39 39.2679 150.485C38.9964 150.581 38.6972 150.629 38.3701 150.629C38.0462 150.629 37.7485 150.581 37.477 150.485C37.2086 150.39 36.9756 150.257 36.7782 150.087C36.5838 149.915 36.4311 149.708 36.3201 149.467C36.2121 149.227 36.1581 148.961 36.1581 148.671ZM37.2039 148.579C37.2039 148.767 37.2317 148.937 37.2872 149.088C37.3428 149.239 37.4215 149.367 37.5233 149.472C37.6251 149.577 37.7469 149.657 37.8888 149.713C38.0338 149.768 38.1943 149.796 38.3701 149.796C38.5398 149.796 38.6956 149.768 38.8375 149.713C38.9794 149.654 39.1013 149.572 39.2031 149.467C39.308 149.359 39.3898 149.231 39.4484 149.083C39.507 148.932 39.5363 148.764 39.5363 148.579C39.5363 148.409 39.5085 148.25 39.453 148.102C39.3975 147.951 39.3188 147.82 39.217 147.709C39.1152 147.598 38.9918 147.51 38.8468 147.445C38.7049 147.38 38.546 147.348 38.3701 147.348C38.2035 147.348 38.0477 147.379 37.9027 147.44C37.7608 147.499 37.6374 147.584 37.5325 147.695C37.4307 147.803 37.3505 147.932 37.2919 148.084C37.2333 148.235 37.2039 148.4 37.2039 148.579ZM37.4307 145.58C37.4307 145.719 37.4554 145.848 37.5047 145.969C37.5541 146.086 37.6204 146.189 37.7037 146.279C37.787 146.365 37.8842 146.433 37.9953 146.482C38.1094 146.532 38.2313 146.557 38.3609 146.557C38.4904 146.557 38.6108 146.532 38.7218 146.482C38.836 146.43 38.9347 146.361 39.018 146.274C39.1044 146.185 39.1723 146.081 39.2216 145.964C39.271 145.844 39.2957 145.716 39.2957 145.58C39.2957 145.441 39.271 145.312 39.2216 145.191C39.1753 145.071 39.1106 144.968 39.0273 144.881C38.944 144.795 38.8452 144.727 38.7311 144.678C38.6169 144.628 38.4935 144.604 38.3609 144.604C38.222 144.604 38.0956 144.63 37.9814 144.682C37.8673 144.732 37.7685 144.801 37.6852 144.891C37.605 144.98 37.5418 145.085 37.4955 145.205C37.4523 145.322 37.4307 145.447 37.4307 145.58ZM45.6217 150.522H41.4568V150.009C41.4568 149.799 41.4861 149.603 41.5447 149.421C41.6033 149.236 41.682 149.063 41.7807 148.903C41.8795 148.739 41.9952 148.587 42.1278 148.445C42.2605 148.3 42.4024 148.161 42.5536 148.028C42.7047 147.892 42.859 147.763 43.0163 147.639C43.1737 147.513 43.3279 147.386 43.4791 147.26C43.621 147.14 43.7506 147.022 43.8678 146.908C43.9851 146.791 44.0853 146.671 44.1686 146.547C44.2519 146.424 44.3167 146.294 44.363 146.159C44.4093 146.02 44.4324 145.87 44.4324 145.71C44.4324 145.534 44.4046 145.381 44.3491 145.252C44.2967 145.119 44.2211 145.009 44.1224 144.923C44.0267 144.833 43.9126 144.767 43.7799 144.724C43.6472 144.678 43.5022 144.655 43.3449 144.655C43.0734 144.655 42.7973 144.718 42.5165 144.844C42.2358 144.971 41.9659 145.16 41.7067 145.413V144.382C41.8424 144.28 41.9797 144.192 42.1186 144.118C42.2574 144.041 42.4009 143.977 42.5489 143.928C42.697 143.876 42.8528 143.837 43.0163 143.812C43.1799 143.788 43.3542 143.775 43.5393 143.775C43.8385 143.775 44.11 143.815 44.3537 143.896C44.5975 143.973 44.8057 144.088 44.9785 144.243C45.1513 144.394 45.2839 144.584 45.3765 144.812C45.4721 145.04 45.5199 145.302 45.5199 145.599C45.5199 145.867 45.486 146.109 45.4181 146.325C45.3533 146.538 45.2592 146.737 45.1358 146.922C45.0155 147.107 44.869 147.283 44.6962 147.45C44.5234 147.616 44.3306 147.787 44.1177 147.963C43.9388 148.108 43.7599 148.25 43.5809 148.389C43.4051 148.525 43.2462 148.659 43.1043 148.792C42.9623 148.921 42.8467 149.052 42.7572 149.185C42.6708 149.315 42.6276 149.446 42.6276 149.578V149.602H45.6217V150.522ZM50.5549 143.886V148.172H51.5406V149.065H50.5549V150.522H49.5136V149.065H46.5103V148.162C46.7817 147.857 47.0594 147.527 47.3432 147.172C47.6302 146.814 47.9047 146.45 48.167 146.08C48.4323 145.707 48.6776 145.333 48.9028 144.96C49.128 144.587 49.3177 144.229 49.472 143.886H50.5549ZM49.5136 148.172V145.386C49.1773 145.99 48.8442 146.518 48.514 146.968C48.187 147.419 47.8801 147.82 47.5931 148.172H49.5136ZM53.5027 152.753H52.6049V143.275H53.5027V152.753Z" fill="#2C3131"/>
<g clip-path="url(#clip1_61_1293)">
<path d="M181.953 155.146C186.439 155.146 190.076 151.509 190.076 147.022C190.076 142.536 186.439 138.899 181.953 138.899C177.466 138.899 173.829 142.536 173.829 147.022C173.829 151.509 177.466 155.146 181.953 155.146Z" fill="#627EEA"/>
<path d="M182.206 140.93V145.433L186.012 147.134L182.206 140.93Z" fill="white" fill-opacity="0.602"/>
<path d="M182.206 140.93L178.399 147.134L182.206 145.433V140.93Z" fill="white"/>
<path d="M182.206 150.053V153.113L186.015 147.843L182.206 150.053Z" fill="white" fill-opacity="0.602"/>
<path d="M182.206 153.113V150.052L178.399 147.843L182.206 153.113Z" fill="white"/>
<path d="M182.206 149.344L186.012 147.134L182.206 145.434V149.344Z" fill="white" fill-opacity="0.2"/>
<path d="M178.399 147.134L182.206 149.344V145.434L178.399 147.134Z" fill="white" fill-opacity="0.602"/>
</g>
<path d="M201.246 151.522H196.529V143.12H201.058V144.304H197.924V146.683H200.812V147.86H197.924V150.345H201.246V151.522ZM208.189 144.304H205.775V151.522H204.381V144.304H201.972V143.12H208.189V144.304ZM216.17 151.522H214.769V147.878H210.814V151.522H209.42V143.12H210.814V146.653H214.769V143.12H216.17V151.522Z" fill="#626262"/>
<path d="M235.576 145.497L232.316 148.757C231.931 149.142 231.301 149.142 230.916 148.757L227.656 145.497" stroke="#292D32" stroke-width="1.5" stroke-miterlimit="10" stroke-linecap="round" stroke-linejoin="round"/>
<rect x="14.2168" y="131.452" width="233.553" height="31.1404" rx="2.0309" stroke="#1C1C93" stroke-width="1.35393"/>
<rect x="13.5398" y="171.393" width="234.907" height="39.264" rx="2.70787" fill="#1C1C93"/>
<path d="M119.761 197.137C119.025 197.137 118.364 197.009 117.777 196.753C117.201 196.487 116.748 196.124 116.417 195.665C116.087 195.196 115.916 194.657 115.905 194.049H117.457C117.511 194.572 117.724 195.015 118.097 195.377C118.481 195.729 119.036 195.905 119.761 195.905C120.455 195.905 120.999 195.735 121.393 195.393C121.799 195.041 122.001 194.593 122.001 194.049C122.001 193.623 121.884 193.276 121.649 193.009C121.415 192.743 121.121 192.54 120.769 192.401C120.417 192.263 119.943 192.113 119.345 191.953C118.609 191.761 118.017 191.569 117.569 191.377C117.132 191.185 116.753 190.887 116.433 190.481C116.124 190.065 115.969 189.511 115.969 188.817C115.969 188.209 116.124 187.671 116.433 187.201C116.743 186.732 117.175 186.369 117.729 186.113C118.295 185.857 118.94 185.729 119.665 185.729C120.711 185.729 121.564 185.991 122.225 186.513C122.897 187.036 123.276 187.729 123.361 188.593H121.761C121.708 188.167 121.484 187.793 121.089 187.473C120.695 187.143 120.172 186.977 119.521 186.977C118.913 186.977 118.417 187.137 118.033 187.457C117.649 187.767 117.457 188.204 117.457 188.769C117.457 189.175 117.569 189.505 117.793 189.761C118.028 190.017 118.311 190.215 118.641 190.353C118.983 190.481 119.457 190.631 120.065 190.801C120.801 191.004 121.393 191.207 121.841 191.409C122.289 191.601 122.673 191.905 122.993 192.321C123.313 192.727 123.473 193.281 123.473 193.985C123.473 194.529 123.329 195.041 123.041 195.521C122.753 196.001 122.327 196.391 121.761 196.689C121.196 196.988 120.529 197.137 119.761 197.137ZM127.072 187.057V190.785H131.136V191.985H127.072V195.825H131.616V197.025H125.616V185.857H131.616V187.057H127.072ZM135.275 195.841H139.179V197.025H133.819V185.873H135.275V195.841ZM142.181 195.841H146.085V197.025H140.725V185.873H142.181V195.841Z" fill="white"/>
<circle cx="131.332" cy="123.208" r="10.493" fill="white" stroke="#E3E3E3" stroke-width="0.676966"/>
<path d="M127.045 125.012L128.851 126.818M128.851 126.818L130.656 125.012M128.851 126.818L128.851 120.499C128.851 120.001 129.255 119.597 129.753 119.597V119.597" stroke="#1C1C93" stroke-width="1.35393" stroke-linecap="round" stroke-linejoin="round"/>
<path d="M132.01 121.402L133.815 119.597M133.815 119.597L135.62 121.402M133.815 119.597L133.815 126.366C133.815 126.865 133.411 127.269 132.913 127.269V127.269" stroke="#1C1C93" stroke-width="1.35393" stroke-linecap="round" stroke-linejoin="round"/>
<rect x="0.5" y="0.5" width="260.986" height="219.691" rx="9.5" stroke="#E3E3E3"/>
<defs>
<clipPath id="clip0_61_1293">
<rect width="16.2472" height="16.2472" fill="white" transform="translate(174.661 98.2809)"/>
</clipPath>
<clipPath id="clip1_61_1293">
<rect width="16.2472" height="16.2472" fill="white" transform="translate(173.829 138.899)"/>
</clipPath>
</defs>
</svg>
