<svg width="36" height="40" viewBox="0 0 36 40" fill="none" xmlns="http://www.w3.org/2000/svg">
<path d="M13.0223 7.55554C12.3622 7.55554 11.7291 7.81776 11.2624 8.28452C10.7956 8.75127 10.5334 9.38433 10.5334 10.0444C10.5334 10.7045 10.7956 11.3376 11.2624 11.8043C11.7291 12.2711 12.3622 12.5333 13.0223 12.5333H26.9252L23.7071 15.7514C23.2537 16.2209 23.0028 16.8496 23.0085 17.5021C23.0142 18.1547 23.2759 18.779 23.7374 19.2404C24.1988 19.7019 24.8231 19.9636 25.4757 19.9693C26.1283 19.975 26.7569 19.7241 27.2264 19.2707L34.693 11.8041C35.1596 11.3373 35.4217 10.7044 35.4217 10.0444C35.4217 9.38446 35.1596 8.75152 34.693 8.28478L27.2264 0.818117C26.9968 0.580402 26.7221 0.390794 26.4185 0.260354C26.1148 0.129913 25.7882 0.0612543 25.4578 0.0583825C25.1273 0.0555108 24.7995 0.118484 24.4937 0.243628C24.1878 0.368771 23.9099 0.553579 23.6762 0.787267C23.4425 1.02096 23.2577 1.29884 23.1326 1.60472C23.0074 1.9106 22.9445 2.23833 22.9473 2.5688C22.9502 2.89928 23.0189 3.22587 23.1493 3.52952C23.2797 3.83318 23.4694 4.10781 23.7071 4.3374L26.9252 7.55554H13.0223Z" fill="#FFA000"/>
<path d="M22.9778 32.4444C23.6379 32.4444 24.271 32.1822 24.7377 31.7154C25.2045 31.2487 25.4667 30.6156 25.4667 29.9555C25.4667 29.2954 25.2045 28.6624 24.7377 28.1956C24.271 27.7289 23.6379 27.4666 22.9778 27.4666H9.0749L12.293 24.2485C12.5308 24.0189 12.7204 23.7443 12.8508 23.4406C12.9812 23.137 13.0499 22.8104 13.0528 22.4799C13.0556 22.1494 12.9927 21.8217 12.8675 21.5158C12.7424 21.21 12.5576 20.9321 12.3239 20.6984C12.0902 20.4647 11.8123 20.2799 11.5064 20.1547C11.2006 20.0296 10.8728 19.9666 10.5423 19.9695C10.2119 19.9724 9.88529 20.041 9.58163 20.1715C9.27798 20.3019 9.00334 20.4915 8.77375 20.7292L1.30708 28.1959C0.840487 28.6626 0.578369 29.2956 0.578369 29.9555C0.578369 30.6155 0.840487 31.2484 1.30708 31.7152L8.77375 39.1818C9.24316 39.6352 9.87186 39.8861 10.5244 39.8804C11.177 39.8747 11.8013 39.613 12.2627 39.1515C12.7242 38.6901 12.9859 38.0658 12.9916 37.4132C12.9973 36.7607 12.7464 36.132 12.293 35.6626L9.0749 32.4444H22.9778Z" fill="#FFA000"/>
</svg>
