<svg width="57" height="43" viewBox="0 0 57 43" fill="none" xmlns="http://www.w3.org/2000/svg">
<path d="M42.5042 0.105347C35.7849 10.1727 32.0724 15.1931 28.3292 15.1931C24.586 15.1931 20.8735 10.1727 14.1849 0.105347C20.8735 10.1727 24.0644 15.4853 22.1928 18.2744C20.3213 21.0635 13.4178 21.3557 0.0098877 21.3557C13.9087 21.3557 20.8122 21.6479 22.3769 24.7292C23.8497 27.598 20.6588 32.884 14.1849 42.606C20.9042 32.5387 24.6167 27.5183 28.3599 27.5183C32.1031 27.5183 35.8156 32.5387 42.5349 42.606C35.4167 31.9012 32.2872 26.5886 34.9258 23.9323C37.2576 21.5948 44.1303 21.3557 56.7099 21.3557C42.5349 21.3557 35.6315 21.0369 34.2508 17.7697C32.9928 14.8478 36.1838 9.58832 42.5042 0.105347Z" fill="#FFA000"/>
</svg>
